<svg data-v-423bf9ae="" xmlns="http://www.w3.org/2000/svg" viewBox="0 0 45.19559817436462 60" class="icon"><!----><!----><!----><!----><g data-v-423bf9ae="" id="d99352d1-9a2c-414a-8774-499c9ed56939" transform="matrix(1.8738424478096307,0,0,1.8738424478096307,-7.3846287796122425,0.0000660557412892615)" stroke="none" fill="white"><path style="line-height:normal;text-indent:0;text-align:start;text-decoration-line:none;text-decoration-style:solid;text-decoration-color:#000;text-transform:none;block-progression:tb;isolation:auto;mix-blend-mode:normal" d="M17.098 0a.5.5 0 0 0-.051.002.5.5 0 0 0-.242.082s-4.512 2.944-4.512 7.568c0 1.945 1.463 3.541 3.342 3.787-.12 2.793.022 5.049.219 7.061a7.593 7.593 0 0 1-2.065-.088 3.846 3.846 0 0 0-1.717-4.547c-1.58-.913-3.067-.752-4.277-.66-1.21.092-2.086.145-3.002-.771a.5.5 0 0 0-.361-.147.5.5 0 0 0-.49.533s.291 5.381 4.294 7.694c1.75 1.01 3.967.462 5.082-1.188.856.19 1.74.249 2.627.168.092.847.186 1.658.268 2.442.313 2.999.437 5.683-.567 9.43a.5.5 0 1 0 .965.257c1.04-3.883.912-6.756.596-9.791-.078-.749-.166-1.51-.252-2.299a8.596 8.596 0 0 0 1.733-.197c1.117 1.643 3.329 2.187 5.076 1.178 4.003-2.313 4.295-7.694 4.295-7.694a.5.5 0 0 0-.48-.533.5.5 0 0 0-.372.147c-.916.916-1.791.863-3.002.771-1.21-.092-2.696-.253-4.277.66a3.847 3.847 0 0 0-1.719 4.543 7.587 7.587 0 0 1-1.348.127c-.2-2.029-.348-4.282-.224-7.096 1.872-.252 3.328-1.847 3.328-3.787 0-1.826-.882-3.032-1.567-4.035-.684-1.003-1.169-1.734-.834-2.986A.5.5 0 0 0 17.098 0zm-.463 1.588c.09.988.439 1.861.937 2.592.699 1.023 1.393 1.96 1.393 3.472a2.826 2.826 0 0 1-2.317 2.785 19.27 19.27 0 0 1 .116-3.029.5.5 0 0 0 .004-.097.5.5 0 0 0 0-.002.5.5 0 0 0-.997-.022 20.266 20.266 0 0 0-.12 3.154 2.823 2.823 0 0 1-2.358-2.789c0-3.252 2.363-5.292 3.342-6.064zM5.158 13.718c.9.416 1.832.55 2.713.483 1.235-.093 2.393-.224 3.701.531a2.823 2.823 0 0 1 1.24 3.424 7.585 7.585 0 0 1-2.427-1.308.5.5 0 0 0-.322-.118.5.5 0 0 0-.307.893 8.582 8.582 0 0 0 2.545 1.414 2.823 2.823 0 0 1-3.565.61c-2.815-1.627-3.399-4.694-3.578-5.928zm21.684 0c-.179 1.235-.763 4.302-3.578 5.928a2.823 2.823 0 0 1-3.565-.609 8.59 8.59 0 0 0 2.545-1.414.5.5 0 0 0-.306-.893.5.5 0 0 0-.323.118 7.598 7.598 0 0 1-2.424 1.316 2.822 2.822 0 0 1 1.237-3.432c1.308-.755 2.466-.624 3.7-.53a5.45 5.45 0 0 0 2.714-.483z" color="#000" font-weight="400" font-family="sans-serif" white-space="normal" overflow="visible" stroke-linecap="round" stroke-linejoin="round"></path></g><!----></svg>